<svg width="183" height="24" viewBox="0 0 183 24" fill="none" xmlns="http://www.w3.org/2000/svg">
<path fill-rule="evenodd" clip-rule="evenodd" d="M4.5 9.33789C4.91421 9.33789 5.25 9.67368 5.25 10.0879V19.5004H18.75V10.0879C18.75 9.67368 19.0858 9.33789 19.5 9.33789C19.9142 9.33789 20.25 9.67368 20.25 10.0879V19.5004C20.25 19.8982 20.092 20.2797 19.8107 20.561C19.5294 20.8424 19.1478 21.0004 18.75 21.0004H5.25C4.85218 21.0004 4.47065 20.8424 4.18934 20.561C3.90804 20.2797 3.75 19.8982 3.75 19.5004V10.0879C3.75 9.67368 4.08579 9.33789 4.5 9.33789Z" fill="#A259FF"/>
<path fill-rule="evenodd" clip-rule="evenodd" d="M2.25 3.75C2.25 3.33579 2.58579 3 3 3H21C21.4142 3 21.75 3.33579 21.75 3.75C21.75 4.16421 21.4142 4.5 21 4.5H3C2.58579 4.5 2.25 4.16421 2.25 3.75Z" fill="#A259FF"/>
<path fill-rule="evenodd" clip-rule="evenodd" d="M3 5.25C3.41421 5.25 3.75 5.58579 3.75 6V7.5C3.75 8.09674 3.98705 8.66903 4.40901 9.09099C4.83097 9.51295 5.40326 9.75 6 9.75C6.59674 9.75 7.16903 9.51295 7.59099 9.09099C8.01295 8.66903 8.25 8.09674 8.25 7.5V6C8.25 5.58579 8.58579 5.25 9 5.25C9.41421 5.25 9.75 5.58579 9.75 6V7.5C9.75 8.49456 9.35491 9.44839 8.65165 10.1516C7.94839 10.8549 6.99456 11.25 6 11.25C5.00544 11.25 4.05161 10.8549 3.34835 10.1516C2.64509 9.44839 2.25 8.49456 2.25 7.5V6C2.25 5.58579 2.58579 5.25 3 5.25Z" fill="#A259FF"/>
<path fill-rule="evenodd" clip-rule="evenodd" d="M9 5.25C9.41421 5.25 9.75 5.58579 9.75 6V7.5C9.75 8.09674 9.98705 8.66903 10.409 9.09099C10.831 9.51295 11.4033 9.75 12 9.75C12.5967 9.75 13.169 9.51295 13.591 9.09099C14.0129 8.66903 14.25 8.09674 14.25 7.5V6C14.25 5.58579 14.5858 5.25 15 5.25C15.4142 5.25 15.75 5.58579 15.75 6V7.5C15.75 8.49456 15.3549 9.44839 14.6516 10.1516C13.9484 10.8549 12.9946 11.25 12 11.25C11.0054 11.25 10.0516 10.8549 9.34835 10.1516C8.64509 9.44839 8.25 8.49456 8.25 7.5V6C8.25 5.58579 8.58579 5.25 9 5.25Z" fill="#A259FF"/>
<path fill-rule="evenodd" clip-rule="evenodd" d="M15 5.25C15.4142 5.25 15.75 5.58579 15.75 6V7.5C15.75 8.09674 15.9871 8.66903 16.409 9.09099C16.831 9.51295 17.4033 9.75 18 9.75C18.5967 9.75 19.169 9.51295 19.591 9.09099C20.0129 8.66903 20.25 8.09674 20.25 7.5V6C20.25 5.58579 20.5858 5.25 21 5.25C21.4142 5.25 21.75 5.58579 21.75 6V7.5C21.75 8.49456 21.3549 9.44839 20.6516 10.1516C19.9484 10.8549 18.9946 11.25 18 11.25C17.0054 11.25 16.0516 10.8549 15.3484 10.1516C14.6451 9.44839 14.25 8.49456 14.25 7.5V6C14.25 5.58579 14.5858 5.25 15 5.25Z" fill="#A259FF"/>
<path d="M38.61 16.9102H38.907V6.44922H41.085V17.9992H36.828L35.475 7.53822H35.178V17.9992H33V6.44922H37.257L38.61 16.9102Z" fill="white"/>
<path d="M43.5485 6.44922H50.9405V8.52822H45.7265V11.1682H50.8415V13.2472H45.7265V17.9992H43.5485V6.44922Z" fill="white"/>
<path d="M53.0906 6.44922H61.4066V8.52822H58.3376V17.9992H56.1596V8.52822H53.0906V6.44922Z" fill="white"/>
<path d="M72.7686 6.44922H76.5966L77.2566 15.1282V16.8112H77.6526V15.1282L78.3126 6.44922H82.1406V17.9992H80.1606V10.2772L80.3586 7.63722H79.9626L79.1046 17.9992H75.8376L74.9466 7.63722H74.5506L74.7486 10.2772V17.9992H72.7686V6.44922Z" fill="white"/>
<path d="M89.0921 16.8112C88.8721 17.3282 88.5641 17.6967 88.1681 17.9167C87.7721 18.1257 87.3101 18.2302 86.7821 18.2302C86.2871 18.2302 85.8196 18.1367 85.3796 17.9497C84.9506 17.7627 84.5711 17.4877 84.2411 17.1247C83.9111 16.7617 83.6471 16.3217 83.4491 15.8047C83.2621 15.2877 83.1686 14.6992 83.1686 14.0392V13.7752C83.1686 13.1262 83.2621 12.5432 83.4491 12.0262C83.6361 11.5092 83.8891 11.0692 84.2081 10.7062C84.5271 10.3432 84.8956 10.0682 85.3136 9.88122C85.7426 9.68322 86.1991 9.58422 86.6831 9.58422C87.2661 9.58422 87.7336 9.68322 88.0856 9.88122C88.4486 10.0792 88.7346 10.3872 88.9436 10.8052H89.2406V9.81522H91.3196V15.5242C91.3196 15.8542 91.4681 16.0192 91.7651 16.0192H92.0786V17.9992H90.6596C90.2856 17.9992 89.9776 17.8892 89.7356 17.6692C89.5046 17.4492 89.3891 17.1632 89.3891 16.8112H89.0921ZM87.2441 16.2502C87.8491 16.2502 88.3331 16.0522 88.6961 15.6562C89.0591 15.2492 89.2406 14.6992 89.2406 14.0062V13.8082C89.2406 13.1152 89.0591 12.5707 88.6961 12.1747C88.3331 11.7677 87.8491 11.5642 87.2441 11.5642C86.6391 11.5642 86.1551 11.7677 85.7921 12.1747C85.4291 12.5707 85.2476 13.1152 85.2476 13.8082V14.0062C85.2476 14.6992 85.4291 15.2492 85.7921 15.6562C86.1551 16.0522 86.6391 16.2502 87.2441 16.2502Z" fill="white"/>
<path d="M93.5027 9.81522H96.9677V11.0032H97.2647C97.4187 10.5522 97.6772 10.2057 98.0402 9.96372C98.4142 9.71072 98.8597 9.58422 99.3767 9.58422C100.191 9.58422 100.845 9.84272 101.34 10.3597C101.835 10.8657 102.083 11.6412 102.083 12.6862V13.0492L99.9377 13.2472V13.0162C99.9377 12.5652 99.8222 12.2077 99.5912 11.9437C99.3602 11.6687 99.0137 11.5312 98.5517 11.5312C98.0897 11.5312 97.7267 11.6907 97.4627 12.0097C97.1987 12.3287 97.0667 12.7852 97.0667 13.3792V16.0192H98.9477V17.9992H93.3047V16.0192H94.9877V11.7952H93.5027V9.81522Z" fill="white"/>
<path d="M106.741 12.8182H107.137L109.315 9.81522H111.592V9.91422L108.952 13.6597V13.9567L111.856 17.9002V17.9992H109.48L107.137 14.7982H106.741V17.9992H104.662V6.44922H106.741V12.8182Z" fill="white"/>
<path d="M115.936 14.5837C115.947 14.8257 116.002 15.0512 116.101 15.2602C116.211 15.4582 116.354 15.6342 116.53 15.7882C116.717 15.9312 116.926 16.0467 117.157 16.1347C117.399 16.2117 117.652 16.2502 117.916 16.2502C118.433 16.2502 118.829 16.1622 119.104 15.9862C119.379 15.7992 119.577 15.5792 119.698 15.3262L121.48 16.3162C121.381 16.5252 121.244 16.7452 121.068 16.9762C120.892 17.1962 120.661 17.3997 120.375 17.5867C120.1 17.7737 119.759 17.9277 119.352 18.0487C118.956 18.1697 118.488 18.2302 117.949 18.2302C117.333 18.2302 116.772 18.1312 116.266 17.9332C115.76 17.7352 115.32 17.4492 114.946 17.0752C114.583 16.7012 114.297 16.2447 114.088 15.7057C113.89 15.1667 113.791 14.5562 113.791 13.8742V13.7752C113.791 13.1482 113.896 12.5762 114.105 12.0592C114.325 11.5422 114.622 11.1022 114.996 10.7392C115.37 10.3762 115.804 10.0957 116.299 9.89772C116.805 9.68872 117.344 9.58422 117.916 9.58422C118.62 9.58422 119.225 9.71072 119.731 9.96372C120.237 10.2057 120.655 10.5192 120.985 10.9042C121.315 11.2782 121.557 11.6962 121.711 12.1582C121.865 12.6092 121.942 13.0492 121.942 13.4782V14.5837H115.936ZM117.9 11.4652C117.372 11.4652 116.943 11.6027 116.613 11.8777C116.283 12.1417 116.068 12.4497 115.969 12.8017H119.83C119.764 12.4167 119.555 12.0977 119.203 11.8447C118.862 11.5917 118.428 11.4652 117.9 11.4652Z" fill="white"/>
<path d="M123.977 9.81522H126.402V6.44922H128.481V9.81522H131.435V11.7952H128.481V15.5242C128.481 15.8542 128.63 16.0192 128.927 16.0192H131.138V17.9992H127.673C127.299 17.9992 126.991 17.8782 126.749 17.6362C126.518 17.3942 126.402 17.0862 126.402 16.7122V11.7952H123.977V9.81522Z" fill="white"/>
<path d="M135.961 21.2992H133.882V9.81522H135.961V11.0032H136.258C136.478 10.5522 136.797 10.2057 137.215 9.96372C137.633 9.71072 138.166 9.58422 138.815 9.58422C139.299 9.58422 139.756 9.67772 140.185 9.86472C140.625 10.0517 141.004 10.3267 141.323 10.6897C141.653 11.0417 141.912 11.4762 142.099 11.9932C142.297 12.5102 142.396 13.0987 142.396 13.7587V14.0557C142.396 14.7267 142.302 15.3207 142.115 15.8377C141.928 16.3547 141.675 16.7947 141.356 17.1577C141.037 17.5097 140.658 17.7792 140.218 17.9662C139.789 18.1422 139.321 18.2302 138.815 18.2302C138.441 18.2302 138.117 18.1917 137.842 18.1147C137.567 18.0377 137.325 17.9332 137.116 17.8012C136.918 17.6692 136.747 17.5207 136.604 17.3557C136.472 17.1797 136.357 16.9982 136.258 16.8112H135.961V21.2992ZM138.139 16.2502C138.788 16.2502 139.31 16.0522 139.706 15.6562C140.113 15.2492 140.317 14.6992 140.317 14.0062V13.8082C140.317 13.1152 140.113 12.5707 139.706 12.1747C139.31 11.7677 138.788 11.5642 138.139 11.5642C137.49 11.5642 136.962 11.7732 136.555 12.1912C136.159 12.5982 135.961 13.1372 135.961 13.8082V14.0062C135.961 14.6772 136.159 15.2217 136.555 15.6397C136.962 16.0467 137.49 16.2502 138.139 16.2502Z" fill="white"/>
<path d="M144.364 16.0192H147.235V8.42922H144.463V6.44922H149.314V16.0192H151.987V17.9992H144.364V16.0192Z" fill="white"/>
<path d="M159.813 16.8112C159.593 17.3282 159.285 17.6967 158.889 17.9167C158.493 18.1257 158.031 18.2302 157.503 18.2302C157.008 18.2302 156.541 18.1367 156.101 17.9497C155.672 17.7627 155.292 17.4877 154.962 17.1247C154.632 16.7617 154.368 16.3217 154.17 15.8047C153.983 15.2877 153.89 14.6992 153.89 14.0392V13.7752C153.89 13.1262 153.983 12.5432 154.17 12.0262C154.357 11.5092 154.61 11.0692 154.929 10.7062C155.248 10.3432 155.617 10.0682 156.035 9.88122C156.464 9.68322 156.92 9.58422 157.404 9.58422C157.987 9.58422 158.455 9.68322 158.807 9.88122C159.17 10.0792 159.456 10.3872 159.665 10.8052H159.962V9.81522H162.041V15.5242C162.041 15.8542 162.189 16.0192 162.486 16.0192H162.8V17.9992H161.381C161.007 17.9992 160.699 17.8892 160.457 17.6692C160.226 17.4492 160.11 17.1632 160.11 16.8112H159.813ZM157.965 16.2502C158.57 16.2502 159.054 16.0522 159.417 15.6562C159.78 15.2492 159.962 14.6992 159.962 14.0062V13.8082C159.962 13.1152 159.78 12.5707 159.417 12.1747C159.054 11.7677 158.57 11.5642 157.965 11.5642C157.36 11.5642 156.876 11.7677 156.513 12.1747C156.15 12.5707 155.969 13.1152 155.969 13.8082V14.0062C155.969 14.6992 156.15 15.2492 156.513 15.6562C156.876 16.0522 157.36 16.2502 157.965 16.2502Z" fill="white"/>
<path d="M172.606 14.9962C172.419 15.9642 171.973 16.7452 171.269 17.3392C170.576 17.9332 169.647 18.2302 168.481 18.2302C167.876 18.2302 167.309 18.1367 166.781 17.9497C166.264 17.7627 165.813 17.4932 165.428 17.1412C165.043 16.7892 164.741 16.3547 164.521 15.8377C164.301 15.3207 164.191 14.7322 164.191 14.0722V13.8742C164.191 13.2142 164.301 12.6202 164.521 12.0922C164.741 11.5642 165.043 11.1132 165.428 10.7392C165.824 10.3652 166.281 10.0792 166.798 9.88122C167.326 9.68322 167.887 9.58422 168.481 9.58422C169.625 9.58422 170.549 9.88122 171.253 10.4752C171.968 11.0692 172.419 11.8502 172.606 12.8182L170.56 13.3462C170.494 12.8622 170.285 12.4442 169.933 12.0922C169.581 11.7402 169.086 11.5642 168.448 11.5642C168.151 11.5642 167.87 11.6192 167.606 11.7292C167.342 11.8392 167.111 11.9987 166.913 12.2077C166.715 12.4057 166.556 12.6532 166.435 12.9502C166.325 13.2362 166.27 13.5607 166.27 13.9237V14.0227C166.27 14.3857 166.325 14.7102 166.435 14.9962C166.556 15.2712 166.715 15.5022 166.913 15.6892C167.111 15.8762 167.342 16.0192 167.606 16.1182C167.87 16.2062 168.151 16.2502 168.448 16.2502C169.086 16.2502 169.57 16.0907 169.9 15.7717C170.241 15.4527 170.461 15.0237 170.56 14.4847L172.606 14.9962Z" fill="white"/>
<path d="M176.554 14.5837C176.565 14.8257 176.62 15.0512 176.719 15.2602C176.829 15.4582 176.972 15.6342 177.148 15.7882C177.335 15.9312 177.544 16.0467 177.775 16.1347C178.017 16.2117 178.27 16.2502 178.534 16.2502C179.051 16.2502 179.447 16.1622 179.722 15.9862C179.997 15.7992 180.195 15.5792 180.316 15.3262L182.098 16.3162C181.999 16.5252 181.862 16.7452 181.686 16.9762C181.51 17.1962 181.279 17.3997 180.993 17.5867C180.718 17.7737 180.377 17.9277 179.97 18.0487C179.574 18.1697 179.106 18.2302 178.567 18.2302C177.951 18.2302 177.39 18.1312 176.884 17.9332C176.378 17.7352 175.938 17.4492 175.564 17.0752C175.201 16.7012 174.915 16.2447 174.706 15.7057C174.508 15.1667 174.409 14.5562 174.409 13.8742V13.7752C174.409 13.1482 174.514 12.5762 174.723 12.0592C174.943 11.5422 175.24 11.1022 175.614 10.7392C175.988 10.3762 176.422 10.0957 176.917 9.89772C177.423 9.68872 177.962 9.58422 178.534 9.58422C179.238 9.58422 179.843 9.71072 180.349 9.96372C180.855 10.2057 181.273 10.5192 181.603 10.9042C181.933 11.2782 182.175 11.6962 182.329 12.1582C182.483 12.6092 182.56 13.0492 182.56 13.4782V14.5837H176.554ZM178.518 11.4652C177.99 11.4652 177.561 11.6027 177.231 11.8777C176.901 12.1417 176.686 12.4497 176.587 12.8017H180.448C180.382 12.4167 180.173 12.0977 179.821 11.8447C179.48 11.5917 179.046 11.4652 178.518 11.4652Z" fill="white"/>
</svg>
